<?xml version="1.0" standalone="no"?>
<!DOCTYPE svg PUBLIC "-//W3C//DTD SVG 20010904//EN"
 "http://www.w3.org/TR/2001/REC-SVG-20010904/DTD/svg10.dtd">
<svg version="1.0" xmlns="http://www.w3.org/2000/svg"
 width="920.000000pt" height="920.000000pt" viewBox="0 0 920.000000 920.000000"
 preserveAspectRatio="xMidYMid meet">
<metadata>
Created by potrace 1.14, written by Peter Selinger 2001-2017
</metadata>
<g transform="translate(0.000000,920.000000) scale(0.100000,-0.100000)"
fill="#000000" stroke="none">
<path d="M4886 6503 c-19 -60 -278 -864 -576 -1788 -298 -924 -573 -1776 -611
-1892 -38 -117 -69 -217 -69 -223 0 -6 111 -10 319 -10 l318 0 102 313 c199
608 240 736 356 1092 63 198 124 385 135 415 41 122 710 2186 710 2193 0 4
-146 7 -324 7 l-325 0 -35 -107z"/>
<path d="M2575 6368 c-174 -103 -437 -255 -1295 -751 -666 -384 -1003 -581
-1081 -632 -83 -55 -142 -122 -170 -194 -31 -77 -31 -231 -1 -313 27 -74 82
-159 135 -209 24 -23 579 -355 1315 -789 701 -413 1276 -750 1278 -750 2 0 4
227 4 504 l0 503 -237 140 c-527 311 -961 548 -1240 679 -68 31 -123 60 -123
64 0 7 195 111 962 514 268 140 521 274 562 298 l76 43 0 498 c0 273 -3 497
-7 496 -5 0 -84 -46 -178 -101z"/>
<path d="M6440 5966 l0 -503 308 -180 c551 -323 728 -420 1055 -581 130 -64
237 -119 237 -122 0 -7 -43 -30 -500 -270 -801 -421 -976 -513 -1037 -548
l-63 -36 0 -498 c0 -274 2 -498 4 -498 2 0 133 76 292 168 159 93 467 272 684
397 1610 930 1601 924 1671 995 79 79 102 143 102 275 0 84 -4 111 -26 168
-32 81 -94 174 -145 214 -32 25 -206 131 -437 265 -33 19 -303 178 -600 353
-1231 726 -1536 905 -1541 905 -2 0 -4 -227 -4 -504z"/>
</g>
</svg>
